<?xml version="1.0" encoding="utf-8"?>
<!-- Generator: Adobe Illustrator 22.1.0, SVG Export Plug-In . SVG Version: 6.00 Build 0)  -->
<svg version="1.1" id="Layer_1" xmlns="http://www.w3.org/2000/svg" xmlns:xlink="http://www.w3.org/1999/xlink" x="0px" y="0px"
	 viewBox="0 0 72 72" style="enable-background:new 0 0 72 72;" xml:space="preserve">
<style type="text/css">
	.st0{fill:#231F20;}
</style>
<title>Rectangle</title>
<desc>Created with Sketch.</desc>
<g id="Symbols">
	<g id="Top-Bar-_x2F_-Center" transform="translate(-20.000000, -14.000000)">
		<path id="Rectangle" class="st0" d="M24.3,58h63.5c1.5,0,2.8,1.2,2.8,2.8l0,0c0,1.5-1.2,2.8-2.8,2.8H24.3c-1.5,0-2.8-1.2-2.8-2.8
			l0,0C21.5,59.3,22.7,58,24.3,58z"/>
	</g>
</g>
<title>Rectangle</title>
<desc>Created with Sketch.</desc>
<title>Rectangle</title>
<desc>Created with Sketch.</desc>
<g id="Symbols_2_">
	<g id="Top-Bar-_x2F_-Center_2_" transform="translate(-20.000000, -14.000000)">
		<path id="Rectangle_2_" class="st0" d="M24.3,47h63.5c1.5,0,2.8,1.2,2.8,2.8l0,0c0,1.5-1.2,2.8-2.8,2.8H24.3
			c-1.5,0-2.8-1.2-2.8-2.8l0,0C21.5,48.2,22.7,47,24.3,47z"/>
	</g>
</g>
<title>Rectangle</title>
<desc>Created with Sketch.</desc>
<title>Rectangle</title>
<desc>Created with Sketch.</desc>
<g id="Symbols_4_">
	<g id="Top-Bar-_x2F_-Center_4_" transform="translate(-20.000000, -14.000000)">
		<path id="Rectangle_4_" class="st0" d="M24.3,36h63.5c1.5,0,2.8,1.2,2.8,2.8l0,0c0,1.5-1.2,2.8-2.8,2.8H24.3
			c-1.5,0-2.8-1.2-2.8-2.8l0,0C21.5,37.2,22.7,36,24.3,36z"/>
	</g>
</g>
</svg>
